<svg xmlns:inkscape="http://www.inkscape.org/namespaces/inkscape" xmlns:sodipodi="http://sodipodi.sourceforge.net/DTD/sodipodi-0.dtd" xmlns="http://www.w3.org/2000/svg" xmlns:svg="http://www.w3.org/2000/svg" xmlns:rdf="http://www.w3.org/1999/02/22-rdf-syntax-ns#" xmlns:cc="http://creativecommons.org/ns#" xmlns:dc="http://purl.org/dc/elements/1.1/" viewBox="-0.8466666500000001 -1.6933334 18.6266663 22.8600009" version="1.1" x="0px" y="0px"><g><path style="color:#000000;paint-order:fill markers stroke;" d="m 8.4332692,1.7278264 a 0.2645743,0.2645743 0 0 0 -0.06407,0.016 l -3.695403,1.452428 a 0.26454785,0.26454785 0 0 0 -0.166375,0.185495 0.2645743,0.2645743 0 0 0 -5.29e-4,5.29e-4 0.2645743,0.2645743 0 0 0 0,5.3e-4 0.26454785,0.26454785 0 0 0 -0.0083,0.062 v 4.114439 l -3.52954201,1.385775 a 0.26454785,0.26454785 0 0 0 -0.143125,0.125557 0.2645743,0.2645743 0 0 0 -0.0021,0.0041 0.26454785,0.26454785 0 0 0 -0.02066,0.05425 0.2645743,0.2645743 0 0 0 -0.0011,0.0036 0.26454785,0.26454785 0 0 0 -0.0083,0.06149 v 4.2963146 a 0.26454785,0.26454785 0 0 0 0.168443,0.244916 l -5.29e-4,0.0011 3.70469901,1.452946 a 0.2645743,0.2645743 0 0 0 0.193244,0 l 3.606013,-1.415227 3.6080778,1.415227 a 0.2645743,0.2645743 0 0 0 0.193244,0 l 3.7047,-1.452946 -5.3e-4,-0.0011 a 0.26454785,0.26454785 0 0 0 0.16844,-0.244916 V 9.1940664 a 0.26454785,0.26454785 0 0 0 -0.19066,-0.254731 l -3.514033,-1.380092 v -4.114439 a 0.26454785,0.26454785 0 0 0 -0.190144,-0.25473 l -3.6824848,-1.44623 a 0.2645743,0.2645743 0 0 0 -0.129174,-0.01601 z m 0.03359,0.54718 2.9802938,1.169798 -2.9802938,1.169796 -2.979781,-1.169796 z m -3.43912,1.557318 3.173538,1.245234 v 3.726919 l -3.173538,-1.245234 z m 6.8782398,0 v 3.726919 l -3.1756068,1.246268 v -3.727435 z m -7.1443378,4.191943 h 5.29e-4 l 2.980294,1.169799 -2.980294,1.1697976 -2.979778,-1.1697976 z m 7.4099168,0 h 5.29e-4 l 2.97978,1.169799 -2.980298,1.1697976 -2.9818438,-1.1697976 0.523929,-0.205644 z m -3.9702808,1.557319 v 3.7284686 l -3.173538,1.244202 v -3.727435 z m 0.529095,0 3.1756068,1.2457516 v 3.726919 L 8.7303722,13.310055 Z m 6.8803048,0 v 3.7284686 l -3.175603,1.244718 v -3.727435 z m -14.2871238,5.29e-4 3.17509,1.2452336 v 3.727434 l -3.17509,-1.244718 z" fill="#000000" fill-rule="evenodd" stroke-width="1" stroke-linejoin="round"/></g><text x="0.0" y="19.89666745" font-size="0.8466667" font-weight="bold" font-family="Arbeit Regular, Helvetica, Arial-Unicode, Arial, Sans-serif" fill="#000000">Created by Larea</text><text x="0.0" y="20.74333415" font-size="0.8466667" font-weight="bold" font-family="Arbeit Regular, Helvetica, Arial-Unicode, Arial, Sans-serif" fill="#000000">from Noun Project</text></svg>