<svg xmlns:dc="http://purl.org/dc/elements/1.1/" xmlns:cc="http://creativecommons.org/ns#" xmlns:rdf="http://www.w3.org/1999/02/22-rdf-syntax-ns#" xmlns:svg="http://www.w3.org/2000/svg" xmlns="http://www.w3.org/2000/svg" xmlns:sodipodi="http://sodipodi.sourceforge.net/DTD/sodipodi-0.dtd" xmlns:inkscape="http://www.inkscape.org/namespaces/inkscape" version="1.1" x="0px" y="0px" viewBox="0 0 100 125"><g transform="translate(0,-952.36218)"><path style="text-indent:0;text-transform:none;direction:ltr;block-progression:tb;baseline-shift:baseline;color:#000000;enable-background:accumulate;" d="m 36.953101,1020.5027 0,23.875 c -0.1111,0.5819 0.4077,1.198 1,1.1875 l 24.0938,0 c 0.8945,0 0.9943,-0.509 1,-1.1875 l 0,-23.7187 c -0.014,-0.8792 -0.4926,-1.143 -1.2188,-1.1563 l -23.6875,0 c -0.815,-0.01 -1.2022,0.3884 -1.1875,1 z m 2,1 22.0938,0 0,22.0625 -22.0938,0 z" fill="#000000" fill-opacity="1" fill-rule="evenodd" stroke="none" marker="none" visibility="visible" display="inline" overflow="visible"/><path style="text-indent:0;text-transform:none;direction:ltr;block-progression:tb;baseline-shift:baseline;color:#000000;enable-background:accumulate;" d="m 36.953101,960.4403 0,23.8125 c -0.011,0.59233 0.6056,1.1111 1.1875,1 l 23.7187,0 c 0.846,-0.004 1.1863,-0.3682 1.1876,-1.125 l 0,-23.75 c -0.021,-0.73478 -0.3403,-1.22438 -1,-1.21875 l -24.0938,0 c -0.8008,0.01 -1.0013,0.79174 -1,1.28125 z m 2,0.71875 22.0938,0 0,22.09375 -22.0938,0 z" fill="#000000" fill-opacity="1" fill-rule="evenodd" stroke="none" marker="none" visibility="visible" display="inline" overflow="visible"/><path style="text-indent:0;text-transform:none;direction:ltr;block-progression:tb;baseline-shift:baseline;color:#000000;enable-background:accumulate;" d="m 36.953101,990.53405 0,23.68745 c -0.021,0.8553 0.3898,1.1757 1.2188,1.1875 l 23.6874,0 c 0.8753,0.015 1.172,-0.4138 1.1876,-1.2188 l 0,-23.65615 c -0.01,-0.91101 -0.4581,-1.19878 -1.2188,-1.1875 l -23.5938,0 c -0.9991,0.0188 -1.284,0.45783 -1.2812,1.1875 z m 2,0.8125 22.0938,0 0,22.06245 -22.0938,0 z" fill="#000000" fill-opacity="1" fill-rule="evenodd" stroke="none" marker="none" visibility="visible" display="inline" overflow="visible"/><path style="text-indent:0;text-transform:none;direction:ltr;block-progression:tb;baseline-shift:baseline;color:#000000;enable-background:accumulate;" d="m 67.171901,1020.534 0,23.8437 c 0.022,0.6904 0.620898,1.1867 0.999998,1.1875 l 24.0312,0 c 0.5236,0 0.9999,-0.4764 1,-1 l 0,-24.0625 c -10e-5,-0.5236 -0.4764,-0.9999 -1,-1 l -23.8438,0 c -0.723798,0.014 -1.195898,0.305 -1.187398,1.0313 z m 1.999998,0.9687 22.0312,0 0,22.0625 -22.0312,0 z" fill="#000000" fill-opacity="1" fill-rule="evenodd" stroke="none" marker="none" visibility="visible" display="inline" overflow="visible"/><path style="text-indent:0;text-transform:none;direction:ltr;block-progression:tb;baseline-shift:baseline;color:#000000;enable-background:accumulate;" d="m 67.171901,990.53405 0,23.68745 c 0.015,0.8558 0.4538,1.1958 1.218698,1.1875 l 23.8125,0 c 0.5236,-10e-5 0.9999,-0.4764 1,-1 l 0,-24.06245 c -10e-5,-0.52359 -0.4764,-0.99995 -1,-1 l -23.75,0 c -0.952898,-0.0185 -1.281898,0.42815 -1.281198,1.1875 z m 1.999998,0.8125 22.0312,0 0,22.06245 -22.0312,0 z" fill="#000000" fill-opacity="1" fill-rule="evenodd" stroke="none" marker="none" visibility="visible" display="inline" overflow="visible"/><path style="text-indent:0;text-transform:none;direction:ltr;block-progression:tb;baseline-shift:baseline;color:#000000;enable-background:accumulate;" d="m 68.171899,959.15905 c -0.820298,-10e-4 -0.999798,0.65868 -0.999998,1.21875 l 0,23.8125 c 0.01,0.83561 0.4733,1.06295 1.218698,1.0625 l 23.8125,0 c 0.5236,-5e-5 0.9999,-0.47642 1,-1 l 0,-24.09375 c -10e-5,-0.52359 -0.4764,-0.99995 -1,-1 z m 1,2 22.0312,0 0,22.09375 -22.0312,0 z" fill="#000000" fill-opacity="1" fill-rule="evenodd" stroke="none" marker="none" visibility="visible" display="inline" overflow="visible"/><path style="text-indent:0;text-transform:none;direction:ltr;block-progression:tb;baseline-shift:baseline;color:#000000;enable-background:accumulate;" d="m 7.796901,959.15905 c -0.5236,5e-5 -0.9999,0.47641 -1,1 l 0,24.09375 c 10e-5,0.52358 0.4764,0.99995 1,1 l 23.8124,0 c 0.8489,-0.0193 1.2105,-0.37325 1.2188,-1.03125 l 0,-23.84375 c 0.017,-0.77301 -0.338,-1.2261 -1,-1.21875 z m 1,2 22.0312,0 0,22.09375 -22.0312,0 z" fill="#000000" fill-opacity="1" fill-rule="evenodd" stroke="none" marker="none" visibility="visible" display="inline" overflow="visible"/><path style="text-indent:0;text-transform:none;direction:ltr;block-progression:tb;baseline-shift:baseline;color:#000000;enable-background:accumulate;" d="m 31.609301,989.34655 -23.8124,0 c -0.5236,5e-5 -0.9999,0.47641 -1,1 l 0,24.06245 c 10e-5,0.5236 0.4764,0.9999 1,1 l 23.8124,0 c 0.9751,0 1.2205,-0.5218 1.2188,-1.1875 l 0,-23.68745 c 0,-0.88627 -0.4104,-1.17922 -1.2188,-1.1875 z m -22.8124,2 22.0312,0 0,22.06245 -22.0312,0 z" fill="#000000" fill-opacity="1" fill-rule="evenodd" stroke="none" marker="none" visibility="visible" display="inline" overflow="visible"/><path style="text-indent:0;text-transform:none;direction:ltr;block-progression:tb;baseline-shift:baseline;color:#000000;enable-background:accumulate;" d="m 31.609301,1019.5027 -23.8124,0 c -0.5236,10e-5 -0.9999,0.4764 -1,1 l 0,24.0625 c 10e-5,0.5236 0.4764,1 1,1 l 24.0312,0 c 0.8217,0.011 0.9869,-0.5508 1,-1.1875 l 0,-23.8125 c 0,-0.7958 -0.4713,-1.0626 -1.2188,-1.0625 z m -22.8124,2 22.0312,0 0,22.0625 -22.0312,0 z" fill="#000000" fill-opacity="1" fill-rule="evenodd" stroke="none" marker="none" visibility="visible" display="inline" overflow="visible"/></g><text x="0" y="115" fill="#000000" font-size="5px" font-weight="bold" font-family="'Helvetica Neue', Helvetica, Arial-Unicode, Arial, Sans-serif">Created by Royyan Razka</text><text x="0" y="120" fill="#000000" font-size="5px" font-weight="bold" font-family="'Helvetica Neue', Helvetica, Arial-Unicode, Arial, Sans-serif">from the Noun Project</text></svg>