<svg xmlns="http://www.w3.org/2000/svg" version="1.1" viewBox="-5.0 -10.0 110.0 135.0">
 <path d="m42.648 9.125h15.504c0.57422 0 1.0391 0.46484 1.0391 1.0391v15.504c0 0.57422-0.46484 1.0391-1.0391 1.0391h-15.504c-0.57422 0-1.0391-0.46484-1.0391-1.0391v-15.504c0-0.57422 0.46484-1.0391 1.0391-1.0391zm7.7539 35.414c1.625 0 3.0977-0.66016 4.1641-1.7227 1.0664-1.0664 1.7227-2.5352 1.7227-4.1641 0-1.625-0.66016-3.0977-1.7227-4.1641-1.0664-1.0664-2.5352-1.7227-4.1641-1.7227-1.625 0-3.0977 0.66016-4.1641 1.7227-1.0664 1.0664-1.7227 2.5352-1.7227 4.1641 0 1.625 0.66016 3.0977 1.7227 4.1641 1.0664 1.0625 2.5391 1.7227 4.1641 1.7227zm5.6289-0.25781c-1.4414 1.4414-3.4297 2.332-5.6289 2.332-2.1992 0-4.1875-0.89062-5.6289-2.332-1.4414-1.4414-2.332-3.4297-2.332-5.6289 0-2.1992 0.89062-4.1875 2.332-5.6289 1.4414-1.4414 3.4297-2.332 5.6289-2.332 2.1992 0 4.1875 0.89062 5.6289 2.332 1.4414 1.4414 2.332 3.4297 2.332 5.6289 0 2.1953-0.89062 4.1875-2.332 5.6289zm-5.6289 2.6094c4.3555 0 8.3164 1.7812 11.188 4.6523 2.8711 2.8711 4.6523 6.832 4.6523 11.188v0.25391c0 0.57422-0.46484 1.0391-1.0391 1.0391l-29.605-0.003907c-0.57422 0-1.0391-0.46484-1.0391-1.0391v-0.25391c0-4.3555 1.7812-8.3164 4.6523-11.188 2.8711-2.8672 6.832-4.6484 11.191-4.6484zm0 2.0742c-3.7852 0-7.2266 1.5469-9.7227 4.043-2.3203 2.3203-3.8242 5.4609-4.0234 8.9336h27.484c-0.19922-3.4727-1.6992-6.6133-4.0234-8.9336-2.4922-2.4922-5.9297-4.043-9.7148-4.043zm-18.031-27.215c-0.5 0.27734-1.1289 0.097656-1.4062-0.40234s-0.097656-1.1289 0.40234-1.4062l1.7812-0.98828h-12.293c-0.41406 0-0.78906 0.16797-1.0625 0.44141-0.27344 0.27344-0.44141 0.64844-0.44141 1.0625h-0.003906v16.297c0 0.57031-0.46094 1.0352-1.0352 1.0352-0.57031 0-1.0352-0.46094-1.0352-1.0352l0.007812-16.297h-0.003906c0-0.98438 0.40234-1.8789 1.0508-2.5273 0.64844-0.64844 1.543-1.0508 2.5273-1.0508h12.293l-1.7812-0.98828c-0.5-0.27734-0.67969-0.90625-0.40234-1.4062s0.90625-0.67969 1.4062-0.40234l5.207 2.8867c0.35938 0.16406 0.61328 0.52344 0.61328 0.94531 0 0.42188-0.25 0.78516-0.61328 0.94531zm46.281 10.223c-0.27734-0.5-0.097656-1.1289 0.40234-1.4062s1.1289-0.097656 1.4062 0.40234l0.98828 1.7812-0.003907-12.293c0-0.41406-0.16797-0.78906-0.44141-1.0625-0.27344-0.27344-0.64844-0.44141-1.0625-0.44141h-16.293c-0.57422 0-1.0391-0.46484-1.0391-1.0391 0-0.57422 0.46484-1.0391 1.0391-1.0391h16.297c0.98438 0 1.8789 0.40234 2.5273 1.0508 0.64844 0.64844 1.0508 1.543 1.0508 2.5273v12.293l0.98828-1.7812c0.27734-0.5 0.90625-0.67969 1.4062-0.40234s0.67969 0.90625 0.40234 1.4062l-2.8867 5.207c-0.16406 0.35938-0.52344 0.61328-0.94531 0.61328s-0.78516-0.25-0.94531-0.61328zm-9.2188 52.137-1.7812-0.98828h12.293c0.98438 0 1.8789-0.40234 2.5273-1.0508 0.64844-0.64844 1.0508-1.543 1.0508-2.5273v-16.297c0-0.57422-0.46484-1.0391-1.0391-1.0391s-1.0391 0.46484-1.0391 1.0391v16.297c0 0.41406-0.16797 0.78906-0.44141 1.0625-0.27344 0.27344-0.64844 0.44141-1.0625 0.44141h-12.289l1.7812-0.98828c0.5-0.27734 0.67969-0.90625 0.40234-1.4062-0.27734-0.5-0.90625-0.67969-1.4062-0.40234l-5.207 2.8867c-0.35938 0.16406-0.61328 0.52344-0.61328 0.94531s0.25 0.78516 0.61328 0.94531l5.207 2.8867c0.5 0.27734 1.1289 0.097657 1.4062-0.40234 0.27734-0.49609 0.097656-1.125-0.40234-1.4023zm-53.141-15.074 0.98828-1.7812v12.293c0 0.98438 0.40234 1.8789 1.0508 2.5273 0.64844 0.64844 1.543 1.0508 2.5273 1.0508h16.297c0.57422 0 1.0391-0.46484 1.0391-1.0391 0-0.57422-0.46484-1.0391-1.0391-1.0391h-16.297c-0.41406 0-0.78906-0.16797-1.0625-0.44141-0.27344-0.27344-0.44141-0.64844-0.44141-1.0625v-12.289l0.98828 1.7812c0.27734 0.5 0.90625 0.67969 1.4062 0.40234s0.67969-0.90625 0.40234-1.4062l-2.8867-5.207c-0.16406-0.35938-0.52344-0.61328-0.94531-0.61328-0.42187 0-0.78516 0.25-0.94531 0.61328l-2.8867 5.207c-0.27734 0.5-0.097656 1.1289 0.40234 1.4062 0.49609 0.27344 1.125 0.09375 1.4023-0.40234zm66.816-27.613 8.1328 5.9102c0.38281 0.27734 0.51953 0.76953 0.36328 1.1953l-3.1016 9.5469c-0.14062 0.4375-0.54688 0.71484-0.98438 0.71484h-10.074c-0.48437 0-0.89062-0.33203-1.0039-0.78125l-3.0938-9.5195c-0.14062-0.4375 0.023438-0.90234 0.37891-1.1602l8.1523-5.9219c0.375-0.27344 0.87891-0.25391 1.2305 0.015625zm2.8438 4.625-3.4688-2.5195-6.9336 5.0391 2.6484 8.1484h8.5742l2.6484-8.1484zm-35.551 27.246c2.4258 0 4.625 0.98438 6.2148 2.5742 1.5898 1.5898 2.5703 3.7852 2.5703 6.2148h0.003906c0 2.4258-0.98438 4.625-2.5742 6.2148-1.5898 1.5898-3.7891 2.5742-6.2148 2.5742v-0.003906c-2.4297 0-4.6289-0.98047-6.2148-2.5703-1.5898-1.5898-2.5742-3.7891-2.5742-6.2148s0.98438-4.625 2.5742-6.2148c1.5898-1.5898 3.7852-2.5742 6.2148-2.5742zm4.7461 4.043c-1.2148-1.2148-2.8945-1.9648-4.75-1.9648-1.8555 0-3.5352 0.75-4.75 1.9648-1.2148 1.2148-1.9688 2.8945-1.9688 4.75 0 1.8555 0.75 3.5352 1.9688 4.75 1.2188 1.2188 2.8984 1.9727 4.75 1.9727v-0.003906c1.8555 0 3.5352-0.75 4.75-1.9688 1.2148-1.2148 1.9688-2.8945 1.9688-4.75h0.003906c0-1.8555-0.75391-3.5352-1.9727-4.75zm-35.93-35.594 8.9453 15.496c0.28516 0.49609 0.11328 1.125-0.38281 1.4102-0.16406 0.09375-0.33984 0.13672-0.51562 0.13672v0.003906h-17.898c-0.57422 0-1.0391-0.46484-1.0391-1.0391 0-0.21484 0.066406-0.41406 0.17969-0.58203l4.4414-7.6914c0.011719-0.019531 0.023437-0.035156 0.03125-0.054687l4.4414-7.6953c0.28516-0.49609 0.91406-0.66406 1.4102-0.38281 0.16797 0.10547 0.29688 0.24219 0.38672 0.39844zm2.6797 8.7734-3.582-6.2031-3.5508 6.1484c-0.011719 0.019531-0.019531 0.039062-0.03125 0.058593l-3.5781 6.1953h14.316zm35.219-39.312h-13.43v13.43h13.43z" fill-rule="evenodd"/>
<text x="0.0" y="117.5" font-size="5.0" font-weight="bold" font-family="Arbeit Regular, Helvetica, Arial-Unicode, Arial, Sans-serif" fill="#000000">Created by Lulis Dian RP</text><text x="0.0" y="122.5" font-size="5.0" font-weight="bold" font-family="Arbeit Regular, Helvetica, Arial-Unicode, Arial, Sans-serif" fill="#000000">from Noun Project</text></svg>